<svg id="svg" version="1.1" xmlns="http://www.w3.org/2000/svg" xmlns:xlink="http://www.w3.org/1999/xlink" width="400" height="200" viewBox="0, 0, 400,200"><g id="svgg"><path id="path0" d="M52.451 57.388 C 52.185 57.610,51.833 57.719,51.589 57.655 C 51.285 57.576,51.147 57.660,51.065 57.974 C 50.983 58.286,50.797 58.400,50.370 58.400 C 50.037 58.400,49.738 58.528,49.672 58.700 C 49.609 58.865,49.432 59.000,49.279 59.000 C 49.125 59.000,49.000 59.128,49.000 59.284 C 49.000 59.440,48.730 59.628,48.400 59.700 C 48.070 59.772,47.800 59.960,47.800 60.116 C 47.800 60.272,47.662 60.400,47.494 60.400 C 47.325 60.400,47.129 60.558,47.058 60.750 C 46.987 60.942,46.833 61.164,46.715 61.243 C 46.506 61.381,46.478 61.466,46.425 62.100 C 46.411 62.265,46.214 62.400,45.988 62.400 C 45.631 62.400,45.590 62.492,45.683 63.077 C 45.771 63.633,45.729 63.749,45.445 63.727 C 45.190 63.707,45.083 63.882,45.034 64.400 C 44.998 64.785,44.840 65.172,44.684 65.260 C 44.251 65.504,44.267 71.600,44.700 71.600 C 44.927 71.600,45.000 71.844,45.000 72.600 C 45.000 73.443,45.059 73.600,45.374 73.600 C 45.674 73.600,45.733 73.722,45.675 74.219 C 45.619 74.704,45.690 74.861,46.002 74.942 C 46.324 75.027,46.400 75.216,46.400 75.930 C 46.400 76.530,46.496 76.849,46.700 76.928 C 46.874 76.994,47.000 77.294,47.000 77.640 C 47.000 78.054,47.114 78.267,47.372 78.335 C 47.650 78.407,47.727 78.580,47.675 79.019 C 47.630 79.408,47.742 79.742,48.003 80.003 C 48.223 80.223,48.400 80.668,48.400 81.000 C 48.400 81.400,48.500 81.600,48.700 81.600 C 48.908 81.600,49.000 81.809,49.000 82.285 C 49.000 82.776,49.098 82.990,49.346 83.037 C 49.575 83.081,49.700 83.306,49.715 83.702 C 49.760 84.858,49.803 85.000,50.100 85.000 C 50.310 85.000,50.400 85.211,50.400 85.700 C 50.400 86.189,50.490 86.400,50.700 86.400 C 50.907 86.400,51.000 86.608,51.000 87.069 C 51.000 87.440,51.170 87.934,51.379 88.176 C 51.603 88.434,51.715 88.780,51.653 89.019 C 51.576 89.314,51.663 89.454,51.974 89.535 C 52.303 89.621,52.400 89.801,52.400 90.323 C 52.400 90.791,52.492 91.000,52.700 91.000 C 52.920 91.000,53.000 91.228,53.000 91.856 C 53.000 92.453,53.116 92.811,53.385 93.041 C 53.636 93.255,53.731 93.520,53.659 93.797 C 53.575 94.116,53.655 94.252,53.974 94.335 C 54.301 94.421,54.400 94.601,54.400 95.109 C 54.400 95.473,54.535 95.906,54.700 96.071 C 54.865 96.236,55.000 96.648,55.000 96.986 C 55.000 97.452,55.090 97.600,55.374 97.600 C 55.674 97.600,55.733 97.722,55.675 98.219 C 55.619 98.704,55.690 98.861,56.002 98.942 C 56.324 99.027,56.400 99.216,56.400 99.930 C 56.400 100.530,56.496 100.849,56.700 100.928 C 56.874 100.994,57.000 101.294,57.000 101.640 C 57.000 102.054,57.114 102.267,57.372 102.335 C 57.650 102.407,57.727 102.580,57.675 103.019 C 57.630 103.408,57.742 103.742,58.003 104.003 C 58.223 104.223,58.400 104.668,58.400 105.000 C 58.400 105.400,58.500 105.600,58.700 105.600 C 58.908 105.600,59.000 105.809,59.000 106.285 C 59.000 106.761,59.100 106.990,59.328 107.035 C 59.566 107.082,59.670 107.359,59.711 108.050 L 59.766 109.000 55.383 109.000 L 51.000 109.000 51.000 108.300 C 51.000 107.811,51.090 107.600,51.300 107.600 C 51.495 107.600,51.600 107.405,51.600 107.044 C 51.600 106.736,51.778 106.336,52.000 106.146 C 52.375 105.826,52.400 105.556,52.400 101.904 C 52.400 98.220,52.378 97.990,52.000 97.754 C 51.757 97.602,51.600 97.287,51.600 96.952 C 51.600 96.595,51.494 96.400,51.300 96.400 C 51.107 96.400,50.999 96.204,50.997 95.850 C 50.993 95.304,50.260 94.400,49.822 94.400 C 49.700 94.400,49.600 94.220,49.600 94.000 C 49.600 93.778,49.467 93.600,49.300 93.600 C 49.135 93.600,49.000 93.465,49.000 93.300 C 49.000 93.135,48.875 93.000,48.721 93.000 C 48.568 93.000,48.391 92.865,48.328 92.700 C 48.260 92.525,47.961 92.400,47.606 92.400 C 47.123 92.400,47.000 92.314,47.000 91.979 C 47.000 91.688,46.908 91.593,46.703 91.671 C 46.529 91.738,46.320 91.623,46.196 91.393 C 46.041 91.104,45.776 91.000,45.193 91.000 C 44.621 91.000,44.400 90.916,44.400 90.700 C 44.400 90.462,44.111 90.400,43.000 90.400 C 41.937 90.400,41.600 90.333,41.600 90.121 C 41.600 89.732,41.148 89.600,39.834 89.603 C 38.423 89.606,37.800 89.766,37.800 90.123 C 37.800 90.331,37.473 90.400,36.494 90.400 C 35.517 90.400,35.158 90.476,35.072 90.700 C 35.009 90.865,34.733 91.000,34.460 91.000 C 34.137 91.000,33.927 91.135,33.862 91.386 C 33.799 91.624,33.649 91.729,33.468 91.660 C 33.283 91.589,33.135 91.704,33.065 91.974 C 33.003 92.208,32.829 92.400,32.677 92.400 C 32.525 92.400,32.400 92.535,32.400 92.700 C 32.400 92.869,32.221 93.000,31.991 93.000 C 31.713 93.000,31.601 93.112,31.641 93.350 C 31.681 93.588,31.588 93.681,31.350 93.641 C 31.112 93.601,31.000 93.713,31.000 93.991 C 31.000 94.221,30.869 94.400,30.700 94.400 C 30.535 94.400,30.400 94.531,30.400 94.690 C 30.400 94.850,30.261 95.058,30.090 95.153 C 29.920 95.249,29.765 95.531,29.747 95.780 C 29.728 96.029,29.552 96.319,29.356 96.423 C 29.138 96.540,29.000 96.843,29.000 97.207 C 29.000 97.601,28.899 97.800,28.700 97.800 C 28.500 97.800,28.400 98.000,28.400 98.400 C 28.400 98.732,28.223 99.177,28.003 99.397 C 27.737 99.663,27.630 99.991,27.677 100.397 C 27.733 100.878,27.672 101.000,27.374 101.000 C 27.080 101.000,27.000 101.150,27.000 101.700 C 27.000 102.189,26.910 102.400,26.700 102.400 C 26.501 102.400,26.400 102.599,26.400 102.990 C 26.400 103.326,26.260 103.658,26.076 103.762 C 25.897 103.862,25.725 104.179,25.694 104.468 C 25.662 104.756,25.493 105.136,25.318 105.311 C 25.143 105.485,25.000 105.937,25.000 106.314 C 25.000 106.790,24.908 107.000,24.700 107.000 C 24.492 107.000,24.400 107.209,24.400 107.677 C 24.400 108.181,24.300 108.380,24.007 108.456 C 23.699 108.537,23.631 108.693,23.692 109.174 C 23.735 109.513,23.709 109.781,23.635 109.771 C 23.163 109.706,23.000 109.869,23.000 110.406 C 23.000 110.761,22.875 111.060,22.700 111.128 C 22.498 111.205,22.400 111.522,22.400 112.098 C 22.400 112.784,22.321 112.974,22.002 113.058 C 21.690 113.139,21.619 113.296,21.675 113.781 C 21.733 114.278,21.674 114.400,21.374 114.400 C 21.095 114.400,21.000 114.547,21.000 114.979 C 21.000 115.308,20.871 115.607,20.700 115.672 C 20.535 115.736,20.400 116.015,20.400 116.294 C 20.400 116.572,20.222 116.978,20.003 117.197 C 19.739 117.461,19.630 117.792,19.677 118.192 C 19.729 118.638,19.652 118.820,19.373 118.909 C 19.104 118.994,19.000 119.219,19.000 119.713 C 19.000 120.190,18.908 120.400,18.700 120.400 C 18.506 120.400,18.400 120.595,18.400 120.952 C 18.400 121.292,18.242 121.602,17.989 121.760 C 17.713 121.933,17.618 122.141,17.699 122.396 C 17.781 122.655,17.689 122.845,17.410 122.995 C 17.135 123.142,17.000 123.414,17.000 123.821 C 17.000 124.155,16.865 124.564,16.700 124.729 C 16.535 124.894,16.400 125.337,16.400 125.714 C 16.400 126.262,16.321 126.400,16.008 126.400 C 15.685 126.400,15.618 126.533,15.631 127.150 C 15.654 128.287,15.624 128.400,15.300 128.400 C 15.047 128.400,15.000 128.856,15.000 131.300 C 15.000 133.744,15.047 134.200,15.300 134.200 C 15.626 134.200,15.655 134.311,15.630 135.470 C 15.617 136.076,15.698 136.263,16.007 136.344 C 16.283 136.416,16.400 136.618,16.400 137.023 C 16.400 137.403,16.503 137.600,16.700 137.600 C 16.865 137.600,17.000 137.766,17.000 137.969 C 17.000 138.172,17.180 138.501,17.400 138.700 C 17.620 138.899,17.800 139.183,17.800 139.331 C 17.800 139.479,17.935 139.600,18.100 139.600 C 18.265 139.600,18.400 139.731,18.400 139.891 C 18.400 140.064,18.678 140.234,19.086 140.311 C 19.563 140.400,19.740 140.525,19.665 140.720 C 19.593 140.905,19.699 141.000,19.979 141.000 C 20.220 141.000,20.400 141.128,20.400 141.300 C 20.400 141.497,20.597 141.600,20.977 141.600 C 21.385 141.600,21.584 141.717,21.658 142.000 C 21.737 142.303,21.931 142.400,22.457 142.400 C 22.839 142.400,23.263 142.535,23.400 142.700 C 23.607 142.950,24.369 143.000,27.931 143.000 C 31.552 143.000,32.230 142.954,32.328 142.700 C 32.393 142.529,32.692 142.400,33.021 142.400 C 33.467 142.400,33.600 142.308,33.600 142.000 C 33.600 141.688,33.733 141.600,34.206 141.600 C 34.561 141.600,34.860 141.475,34.928 141.300 C 34.991 141.135,35.168 141.000,35.321 141.000 C 35.475 141.000,35.600 140.907,35.600 140.794 C 35.600 140.680,35.915 140.299,36.300 139.945 C 36.703 139.575,37.000 139.112,37.000 138.851 C 37.000 138.583,37.122 138.400,37.300 138.400 C 37.467 138.400,37.600 138.222,37.600 138.000 C 37.600 137.780,37.731 137.600,37.891 137.600 C 38.065 137.600,38.235 137.319,38.313 136.900 C 38.388 136.499,38.563 136.200,38.722 136.200 C 38.898 136.200,39.000 135.978,39.000 135.594 C 39.000 135.239,39.125 134.940,39.300 134.872 C 39.479 134.804,39.600 134.503,39.600 134.127 C 39.600 133.713,39.737 133.410,40.000 133.246 C 40.276 133.074,40.400 132.780,40.400 132.297 L 40.400 131.597 55.037 131.649 L 69.673 131.700 69.693 132.471 C 69.705 132.951,69.842 133.336,70.056 133.493 C 70.255 133.638,70.400 134.009,70.400 134.372 C 70.400 134.797,70.497 135.000,70.700 135.000 C 70.895 135.000,71.000 135.195,71.000 135.556 C 71.000 135.862,71.178 136.263,71.396 136.450 C 71.629 136.650,71.742 136.919,71.670 137.106 C 71.587 137.321,71.686 137.460,71.974 137.535 C 72.286 137.617,72.400 137.803,72.400 138.230 C 72.400 138.563,72.528 138.862,72.700 138.928 C 72.865 138.991,73.000 139.168,73.000 139.321 C 73.000 139.475,73.177 139.600,73.394 139.600 C 73.668 139.600,73.751 139.694,73.668 139.912 C 73.588 140.120,73.689 140.261,73.974 140.335 C 74.208 140.397,74.400 140.571,74.400 140.723 C 74.400 140.875,74.535 141.000,74.700 141.000 C 74.865 141.000,75.000 141.135,75.000 141.300 C 75.000 141.486,75.189 141.600,75.498 141.600 C 75.780 141.600,76.105 141.774,76.246 142.000 C 76.394 142.237,76.713 142.400,77.027 142.400 C 77.318 142.400,77.609 142.535,77.672 142.700 C 77.770 142.954,78.440 143.000,82.000 143.000 C 85.560 143.000,86.230 142.954,86.328 142.700 C 86.403 142.505,86.714 142.400,87.220 142.400 C 87.780 142.400,88.066 142.288,88.246 142.000 C 88.398 141.757,88.713 141.600,89.048 141.600 C 89.405 141.600,89.600 141.494,89.600 141.300 C 89.600 141.133,89.778 141.000,90.000 141.000 C 90.220 141.000,90.400 140.872,90.400 140.716 C 90.400 140.560,90.670 140.372,91.000 140.300 C 91.330 140.228,91.600 140.040,91.600 139.884 C 91.600 139.728,91.735 139.600,91.900 139.600 C 92.065 139.600,92.200 139.487,92.200 139.348 C 92.200 139.210,92.380 138.984,92.600 138.846 C 92.826 138.705,93.000 138.380,93.000 138.098 C 93.000 137.789,93.114 137.600,93.300 137.600 C 93.465 137.600,93.600 137.465,93.600 137.300 C 93.600 137.135,93.780 136.820,94.000 136.600 C 94.220 136.380,94.400 135.940,94.400 135.621 C 94.400 135.292,94.529 134.993,94.700 134.928 C 95.146 134.756,95.146 128.499,94.700 128.328 C 94.494 128.249,94.400 127.927,94.400 127.306 C 94.400 126.533,94.341 126.400,94.000 126.400 C 93.659 126.400,93.600 126.267,93.600 125.494 C 93.600 124.873,93.506 124.551,93.300 124.472 C 93.115 124.401,93.000 124.097,93.000 123.679 C 93.000 123.209,92.908 123.000,92.700 123.000 C 92.500 123.000,92.400 122.800,92.400 122.400 C 92.400 122.067,92.222 121.622,92.000 121.400 C 91.776 121.176,91.600 120.733,91.600 120.394 C 91.600 120.039,91.475 119.740,91.300 119.672 C 91.129 119.607,91.000 119.308,91.000 118.979 C 91.000 118.598,90.898 118.400,90.700 118.400 C 90.507 118.400,90.399 118.204,90.397 117.850 C 90.393 116.994,90.180 116.400,89.877 116.400 C 89.694 116.400,89.600 116.163,89.600 115.700 C 89.600 115.211,89.510 115.000,89.300 115.000 C 89.092 115.000,89.000 114.790,89.000 114.314 C 89.000 113.937,88.865 113.494,88.700 113.329 C 88.535 113.164,88.400 112.798,88.400 112.516 C 88.400 112.220,88.231 111.898,88.000 111.754 C 87.757 111.602,87.600 111.287,87.600 110.952 C 87.600 110.595,87.494 110.400,87.300 110.400 C 87.077 110.400,87.000 110.166,87.000 109.494 C 87.000 108.873,86.906 108.551,86.700 108.472 C 86.526 108.406,86.400 108.106,86.400 107.760 C 86.400 107.331,86.287 107.133,86.000 107.058 C 85.689 106.977,85.600 106.785,85.600 106.201 C 85.600 105.777,85.469 105.341,85.300 105.200 C 85.135 105.063,85.000 104.689,85.000 104.369 C 85.000 104.037,84.872 103.738,84.700 103.672 C 84.529 103.607,84.400 103.308,84.400 102.979 C 84.400 102.533,84.308 102.400,84.000 102.400 C 83.653 102.400,83.600 102.267,83.600 101.400 C 83.600 100.644,83.527 100.400,83.300 100.400 C 83.090 100.400,83.000 100.189,83.000 99.700 C 83.000 99.241,82.906 99.000,82.726 99.000 C 82.556 99.000,82.410 98.684,82.341 98.166 C 82.279 97.707,82.087 97.253,81.914 97.156 C 81.738 97.057,81.600 96.718,81.600 96.384 C 81.600 96.038,81.474 95.739,81.300 95.672 C 81.129 95.607,81.000 95.308,81.000 94.979 C 81.000 94.598,80.898 94.400,80.700 94.400 C 80.492 94.400,80.400 94.191,80.400 93.716 C 80.400 92.835,80.228 92.400,79.879 92.400 C 79.694 92.400,79.600 92.165,79.600 91.700 C 79.600 91.211,79.510 91.000,79.300 91.000 C 79.085 91.000,79.000 90.780,79.000 90.224 C 79.000 89.779,78.872 89.343,78.700 89.200 C 78.535 89.063,78.400 88.738,78.400 88.477 C 78.400 88.217,78.220 87.891,78.000 87.754 C 77.764 87.606,77.600 87.287,77.600 86.976 C 77.600 86.686,77.465 86.337,77.300 86.200 C 77.128 86.057,77.000 85.621,77.000 85.176 C 77.000 84.620,76.915 84.400,76.700 84.400 C 76.498 84.400,76.400 84.198,76.400 83.781 C 76.400 83.331,76.291 83.134,76.000 83.058 C 75.679 82.974,75.600 82.785,75.600 82.098 C 75.600 81.522,75.502 81.205,75.300 81.128 C 75.124 81.060,75.000 80.760,75.000 80.400 C 75.000 80.040,74.876 79.740,74.700 79.672 C 74.535 79.609,74.400 79.318,74.400 79.027 C 74.400 78.713,74.237 78.394,74.000 78.246 C 73.709 78.064,73.600 77.780,73.600 77.198 C 73.600 76.622,73.517 76.400,73.300 76.400 C 73.090 76.400,73.000 76.189,73.000 75.700 C 73.000 75.211,72.910 75.000,72.700 75.000 C 72.490 75.000,72.400 74.789,72.400 74.300 C 72.400 73.867,72.248 73.448,72.000 73.200 C 71.780 72.980,71.600 72.572,71.600 72.294 C 71.600 72.015,71.465 71.736,71.300 71.672 C 71.135 71.609,71.000 71.314,71.000 71.017 C 71.000 70.720,70.868 70.302,70.706 70.088 C 70.545 69.875,70.410 69.444,70.406 69.131 C 70.402 68.734,70.279 68.531,70.000 68.458 C 69.699 68.379,69.600 68.185,69.600 67.677 C 69.600 67.209,69.508 67.000,69.300 67.000 C 69.077 67.000,69.000 66.766,69.000 66.094 C 69.000 65.473,68.906 65.151,68.700 65.072 C 68.526 65.006,68.400 64.706,68.400 64.360 C 68.400 63.931,68.287 63.733,68.000 63.658 C 67.717 63.584,67.600 63.385,67.600 62.977 C 67.600 62.597,67.497 62.400,67.300 62.400 C 67.099 62.400,67.000 62.199,67.000 61.794 C 67.000 61.439,66.875 61.140,66.700 61.072 C 66.535 61.009,66.400 60.832,66.400 60.679 C 66.400 60.525,66.220 60.400,66.000 60.400 C 65.727 60.400,65.600 60.267,65.600 59.979 C 65.600 59.686,65.508 59.592,65.300 59.672 C 65.096 59.751,65.000 59.662,65.000 59.394 C 65.000 59.177,64.875 59.000,64.721 59.000 C 64.568 59.000,64.391 58.865,64.328 58.700 C 64.260 58.525,63.961 58.400,63.606 58.400 C 63.142 58.400,63.000 58.310,63.000 58.017 C 63.000 57.701,62.876 57.643,62.300 57.689 C 61.731 57.734,61.600 57.675,61.600 57.372 C 61.600 56.798,53.141 56.813,52.451 57.388 M159.450 57.132 C 159.313 57.188,159.200 57.348,159.200 57.489 C 159.200 57.664,158.973 57.720,158.483 57.666 C 157.894 57.601,157.747 57.659,157.660 57.993 C 157.584 58.284,157.388 58.400,156.977 58.400 C 156.597 58.400,156.400 58.503,156.400 58.700 C 156.400 58.870,156.221 59.000,155.987 59.000 C 155.673 59.000,155.602 59.091,155.692 59.374 C 155.778 59.645,155.712 59.748,155.455 59.747 C 154.622 59.743,154.400 59.817,154.400 60.100 C 154.400 60.265,154.265 60.400,154.100 60.400 C 153.935 60.400,153.800 60.515,153.800 60.656 C 153.800 60.796,153.620 61.065,153.400 61.254 C 153.180 61.442,153.000 61.777,153.000 61.998 C 153.000 62.222,152.867 62.400,152.700 62.400 C 152.503 62.400,152.400 62.597,152.400 62.977 C 152.400 63.390,152.284 63.584,151.990 63.660 C 151.639 63.752,151.595 63.885,151.680 64.589 C 151.760 65.252,151.704 65.456,151.389 65.653 C 150.810 66.015,150.801 70.197,151.379 70.742 C 151.659 71.007,151.744 71.328,151.705 71.980 C 151.640 73.092,151.771 73.600,152.123 73.600 C 152.322 73.600,152.400 73.882,152.400 74.600 C 152.400 75.356,152.473 75.600,152.700 75.600 C 152.936 75.600,153.000 75.876,153.000 76.887 C 153.000 77.970,153.059 78.192,153.376 78.292 C 153.685 78.391,153.742 78.575,153.691 79.321 C 153.645 80.008,153.724 80.324,154.015 80.615 C 154.292 80.892,154.400 81.280,154.400 82.000 C 154.400 82.756,154.473 83.000,154.700 83.000 C 154.934 83.000,155.000 83.269,155.000 84.219 C 155.000 85.244,155.060 85.453,155.377 85.536 C 155.694 85.619,155.743 85.789,155.683 86.617 C 155.622 87.485,155.659 87.600,156.007 87.600 C 156.357 87.600,156.400 87.741,156.400 88.879 C 156.400 89.831,156.477 90.187,156.700 90.272 C 156.912 90.354,157.000 90.684,157.000 91.392 C 157.000 92.158,157.089 92.452,157.375 92.631 C 157.682 92.823,157.735 93.045,157.665 93.849 C 157.589 94.710,157.629 94.845,157.989 94.939 C 158.345 95.032,158.400 95.205,158.400 96.230 C 158.400 97.097,158.480 97.443,158.700 97.528 C 158.910 97.608,159.000 97.936,159.000 98.621 C 159.000 99.325,159.078 99.600,159.279 99.600 C 159.660 99.600,159.767 99.962,159.682 100.963 C 159.627 101.620,159.700 101.889,160.005 102.151 C 160.294 102.398,160.400 102.740,160.400 103.423 C 160.400 104.069,160.493 104.393,160.700 104.472 C 160.916 104.555,161.000 104.894,161.000 105.687 C 161.000 106.546,161.080 106.829,161.365 106.981 C 161.651 107.134,161.717 107.375,161.675 108.098 C 161.634 108.796,161.715 109.115,162.010 109.410 C 162.281 109.681,162.400 110.075,162.400 110.700 C 162.400 111.367,162.478 111.600,162.700 111.600 C 162.935 111.600,163.000 111.875,163.000 112.877 C 163.000 113.945,163.060 114.169,163.365 114.249 C 163.665 114.327,163.721 114.515,163.675 115.293 C 163.628 116.093,163.681 116.259,164.010 116.345 C 164.345 116.432,164.400 116.625,164.400 117.723 C 164.400 118.725,164.465 119.000,164.700 119.000 C 164.927 119.000,165.000 119.244,165.000 120.000 C 165.000 120.686,165.110 121.110,165.350 121.350 C 165.590 121.590,165.690 121.974,165.667 122.573 C 165.640 123.281,165.706 123.465,166.017 123.546 C 166.344 123.632,166.400 123.834,166.400 124.923 C 166.400 125.925,166.465 126.200,166.700 126.200 C 166.926 126.200,167.000 126.444,167.000 127.193 C 167.000 127.958,167.086 128.232,167.374 128.386 C 167.667 128.543,167.735 128.772,167.688 129.443 C 167.614 130.517,167.746 131.000,168.113 131.000 C 168.324 131.000,168.400 131.265,168.400 132.000 C 168.400 132.756,168.473 133.000,168.700 133.000 C 168.900 133.000,169.000 133.200,169.000 133.600 C 169.000 133.931,169.177 134.377,169.395 134.595 C 169.613 134.813,169.738 135.128,169.674 135.295 C 169.592 135.509,169.683 135.600,169.979 135.600 C 170.327 135.600,170.400 135.721,170.400 136.300 C 170.400 136.789,170.490 137.000,170.700 137.000 C 170.865 137.000,171.000 137.135,171.000 137.300 C 171.000 137.465,171.135 137.600,171.300 137.600 C 171.465 137.600,171.611 137.690,171.625 137.800 C 171.639 137.910,171.661 138.078,171.675 138.173 C 171.722 138.496,172.898 139.558,173.300 139.641 C 173.520 139.687,173.675 139.839,173.644 139.979 C 173.614 140.120,173.771 140.282,173.994 140.341 C 174.217 140.399,174.400 140.571,174.400 140.723 C 174.400 140.906,174.636 141.000,175.094 141.000 C 175.628 141.000,175.761 141.069,175.672 141.300 C 175.584 141.531,175.717 141.600,176.255 141.600 C 176.785 141.600,176.979 141.696,177.058 142.000 C 177.153 142.365,177.331 142.400,179.060 142.400 C 180.562 142.400,180.981 142.463,181.072 142.700 C 181.174 142.965,184.418 143.000,208.600 143.000 C 232.782 143.000,236.026 142.965,236.128 142.700 C 236.221 142.457,236.683 142.400,238.540 142.400 C 240.669 142.400,240.845 142.371,240.942 142.000 C 241.023 141.689,241.215 141.600,241.799 141.600 C 242.223 141.600,242.659 141.469,242.800 141.300 C 242.937 141.135,243.173 141.000,243.324 141.000 C 243.476 141.000,243.600 140.865,243.600 140.700 C 243.600 140.535,243.755 140.400,243.945 140.400 C 244.321 140.400,245.600 139.076,245.600 138.687 C 245.600 138.555,245.780 138.400,246.000 138.342 C 246.272 138.271,246.400 138.069,246.400 137.712 C 246.400 137.424,246.535 137.136,246.700 137.072 C 246.885 137.001,247.000 136.697,247.000 136.279 C 247.000 135.809,247.092 135.600,247.300 135.600 C 247.566 135.600,247.600 131.511,247.600 100.000 C 247.600 68.489,247.566 64.400,247.300 64.400 C 247.073 64.400,247.000 64.156,247.000 63.400 C 247.000 62.644,246.927 62.400,246.700 62.400 C 246.535 62.400,246.400 62.265,246.400 62.100 C 246.400 61.935,246.220 61.620,246.000 61.400 C 245.780 61.180,245.600 60.865,245.600 60.700 C 245.600 60.535,245.465 60.400,245.300 60.400 C 245.135 60.400,245.000 60.271,245.000 60.113 C 245.000 59.956,244.828 59.772,244.618 59.706 C 244.409 59.639,244.186 59.453,244.125 59.292 C 244.063 59.132,243.785 59.000,243.506 59.000 C 243.190 59.000,243.000 58.888,243.000 58.700 C 243.000 58.535,242.865 58.400,242.700 58.400 C 242.535 58.400,242.234 58.234,242.030 58.030 C 241.807 57.807,241.417 57.675,241.045 57.697 C 240.597 57.724,240.403 57.634,240.333 57.367 C 240.178 56.773,231.000 56.802,231.000 57.396 C 231.000 57.718,230.888 57.779,230.400 57.722 C 230.070 57.684,229.800 57.736,229.800 57.838 C 229.800 57.940,229.709 57.968,229.599 57.899 C 229.488 57.831,229.343 57.915,229.277 58.087 C 229.211 58.259,228.987 58.400,228.779 58.400 C 228.570 58.400,228.400 58.535,228.400 58.700 C 228.400 58.883,228.214 59.000,227.924 59.000 C 227.411 59.000,226.910 59.444,227.152 59.685 C 227.233 59.767,227.210 59.815,227.100 59.793 C 226.656 59.703,226.400 59.816,226.400 60.100 C 226.400 60.265,226.274 60.400,226.120 60.400 C 225.818 60.400,225.349 61.483,225.560 61.694 C 225.630 61.764,225.533 61.762,225.344 61.689 C 225.086 61.590,225.000 61.662,225.000 61.979 C 225.000 62.220,224.872 62.400,224.700 62.400 C 224.474 62.400,224.400 62.643,224.400 63.385 C 224.400 64.164,224.327 64.385,224.050 64.439 C 223.758 64.496,223.698 64.740,223.686 65.904 C 223.678 66.672,223.656 78.618,223.636 92.450 L 223.600 117.600 220.600 117.600 L 217.600 117.600 217.600 91.394 C 217.600 68.284,217.565 65.174,217.300 65.072 C 217.090 64.992,217.000 64.664,217.000 63.979 C 217.000 63.242,216.926 63.000,216.700 63.000 C 216.514 63.000,216.400 62.811,216.400 62.502 C 216.400 62.220,216.226 61.895,216.000 61.754 C 215.780 61.616,215.600 61.390,215.600 61.252 C 215.600 61.113,215.465 61.000,215.300 61.000 C 215.135 61.000,215.000 60.865,215.000 60.700 C 215.000 60.535,214.875 60.400,214.723 60.400 C 214.571 60.400,214.397 60.211,214.337 59.980 C 214.272 59.732,214.134 59.617,214.000 59.700 C 213.866 59.783,213.728 59.668,213.663 59.420 C 213.603 59.189,213.429 59.000,213.277 59.000 C 213.125 59.000,213.000 58.865,213.000 58.700 C 213.000 58.490,212.789 58.400,212.300 58.400 C 211.731 58.400,211.600 58.324,211.600 57.995 C 211.600 57.651,211.495 57.602,210.900 57.668 C 210.323 57.731,210.200 57.679,210.200 57.372 C 210.200 57.020,209.955 57.000,205.687 57.000 C 201.433 57.000,200.214 57.137,200.489 57.582 C 200.544 57.671,200.269 57.708,199.877 57.665 C 199.294 57.601,199.147 57.660,199.060 57.993 C 198.984 58.284,198.788 58.400,198.377 58.400 C 197.997 58.400,197.800 58.503,197.800 58.700 C 197.800 58.867,197.622 59.000,197.400 59.000 C 197.135 59.000,197.000 59.133,197.000 59.394 C 197.000 59.662,196.904 59.751,196.700 59.672 C 196.492 59.592,196.400 59.686,196.400 59.979 C 196.400 60.274,196.274 60.400,195.979 60.400 C 195.686 60.400,195.592 60.492,195.672 60.700 C 195.751 60.904,195.662 61.000,195.394 61.000 C 195.112 61.000,195.000 61.136,195.000 61.476 C 195.000 61.737,194.865 62.063,194.700 62.200 C 194.535 62.337,194.400 62.697,194.400 63.001 C 194.400 63.383,194.278 63.585,194.004 63.657 C 193.680 63.742,193.613 63.920,193.633 64.630 C 193.675 66.080,193.615 66.400,193.300 66.400 C 193.035 66.400,193.000 69.378,193.000 92.000 L 193.000 117.600 191.300 117.600 L 189.600 117.600 189.600 116.524 C 189.600 115.812,189.499 115.365,189.300 115.200 C 189.108 115.041,189.000 114.599,189.000 113.976 C 189.000 113.242,188.926 113.000,188.700 113.000 C 188.481 113.000,188.399 112.771,188.397 112.150 C 188.394 111.011,188.212 110.400,187.877 110.400 C 187.678 110.400,187.600 110.118,187.600 109.400 C 187.600 108.644,187.527 108.400,187.300 108.400 C 187.064 108.400,187.000 108.122,187.000 107.100 C 187.000 106.078,186.936 105.800,186.700 105.800 C 186.473 105.800,186.400 105.553,186.400 104.781 C 186.400 103.931,186.334 103.745,186.000 103.658 C 185.653 103.567,185.600 103.385,185.600 102.277 C 185.600 101.275,185.535 101.000,185.300 101.000 C 185.074 101.000,185.000 100.758,185.000 100.024 C 185.000 99.401,184.892 98.959,184.700 98.800 C 184.507 98.640,184.400 98.197,184.400 97.557 C 184.400 96.731,184.332 96.545,184.000 96.458 C 183.657 96.368,183.600 96.185,183.600 95.170 C 183.600 94.303,183.520 93.957,183.300 93.872 C 183.090 93.792,183.000 93.463,183.000 92.772 C 183.000 92.081,182.910 91.753,182.700 91.672 C 182.490 91.592,182.400 91.264,182.400 90.579 C 182.400 89.867,182.291 89.491,182.000 89.200 C 181.719 88.919,181.600 88.533,181.600 87.900 C 181.600 87.233,181.522 87.000,181.300 87.000 C 181.066 87.000,181.000 86.733,181.000 85.794 C 181.000 84.906,180.921 84.557,180.700 84.472 C 180.490 84.392,180.400 84.064,180.400 83.379 C 180.400 82.533,180.346 82.400,180.000 82.400 C 179.642 82.400,179.600 82.267,179.600 81.121 C 179.600 80.169,179.523 79.813,179.300 79.728 C 179.090 79.647,179.000 79.319,179.000 78.631 C 179.000 78.002,178.892 77.559,178.700 77.400 C 178.530 77.259,178.400 76.823,178.400 76.392 C 178.400 75.438,178.236 75.000,177.879 75.000 C 177.675 75.000,177.600 74.710,177.600 73.924 C 177.600 73.212,177.499 72.765,177.300 72.600 C 177.108 72.441,177.000 71.999,177.000 71.376 C 177.000 70.642,176.926 70.400,176.700 70.400 C 176.481 70.400,176.399 70.171,176.397 69.550 C 176.394 68.411,176.212 67.800,175.877 67.800 C 175.678 67.800,175.600 67.517,175.600 66.794 C 175.600 66.084,175.512 65.754,175.300 65.672 C 175.096 65.594,175.000 65.274,175.000 64.672 C 175.000 64.070,174.904 63.751,174.700 63.672 C 174.535 63.609,174.400 63.318,174.400 63.027 C 174.400 62.713,174.237 62.394,174.000 62.246 C 173.774 62.105,173.600 61.780,173.600 61.498 C 173.600 61.189,173.486 61.000,173.300 61.000 C 173.135 61.000,173.000 60.865,173.000 60.700 C 173.000 60.535,172.875 60.400,172.723 60.400 C 172.571 60.400,172.400 60.220,172.342 60.000 C 172.285 59.780,172.094 59.600,171.919 59.600 C 171.743 59.600,171.600 59.465,171.600 59.300 C 171.600 59.135,171.465 59.000,171.300 59.000 C 171.135 59.000,171.000 58.865,171.000 58.700 C 171.000 58.515,170.812 58.400,170.511 58.400 C 170.243 58.400,169.901 58.226,169.752 58.013 C 169.576 57.763,169.296 57.647,168.956 57.684 C 168.583 57.725,168.403 57.634,168.334 57.371 C 168.240 57.010,160.282 56.797,159.450 57.132 M264.948 57.377 C 264.872 57.667,264.705 57.736,264.221 57.680 C 263.790 57.630,263.469 57.731,263.197 58.003 C 262.978 58.222,262.710 58.400,262.600 58.400 C 262.490 58.400,262.400 58.535,262.400 58.700 C 262.400 58.890,262.209 59.000,261.878 59.000 C 261.347 59.000,260.410 59.716,260.403 60.127 C 260.402 60.251,260.208 60.403,259.974 60.465 C 259.664 60.546,259.585 60.673,259.685 60.932 C 259.760 61.128,259.757 61.224,259.679 61.146 C 259.443 60.909,259.000 61.417,259.000 61.924 C 259.000 62.214,258.883 62.400,258.700 62.400 C 258.473 62.400,258.400 62.644,258.400 63.400 C 258.400 64.264,258.346 64.400,258.003 64.400 C 257.609 64.400,257.607 64.634,257.608 100.000 C 257.610 135.321,257.613 135.600,258.005 135.600 C 258.346 135.600,258.400 135.737,258.400 136.600 C 258.400 137.356,258.473 137.600,258.700 137.600 C 258.865 137.600,259.000 137.729,259.000 137.886 C 259.000 138.307,259.859 139.582,260.150 139.592 C 260.288 139.596,260.400 139.718,260.400 139.862 C 260.400 140.221,261.490 141.000,261.992 141.000 C 262.221 141.000,262.400 141.131,262.400 141.300 C 262.400 141.465,262.531 141.600,262.690 141.600 C 262.850 141.600,263.059 141.742,263.156 141.914 C 263.253 142.087,263.707 142.279,264.166 142.341 C 264.684 142.410,265.000 142.556,265.000 142.726 C 265.000 143.154,274.163 143.128,274.328 142.700 C 274.393 142.529,274.692 142.400,275.021 142.400 C 275.467 142.400,275.600 142.308,275.600 142.000 C 275.600 141.676,275.733 141.600,276.300 141.600 C 276.789 141.600,277.000 141.510,277.000 141.300 C 277.000 141.135,277.125 141.000,277.279 141.000 C 277.432 141.000,277.609 140.865,277.672 140.700 C 277.736 140.535,277.930 140.400,278.105 140.400 C 278.509 140.400,279.600 139.217,279.600 138.779 C 279.600 138.596,279.780 138.400,280.000 138.342 C 280.272 138.271,280.400 138.069,280.400 137.712 C 280.400 137.424,280.535 137.136,280.700 137.072 C 280.882 137.002,281.000 136.700,281.000 136.300 C 281.000 135.900,281.118 135.598,281.300 135.528 C 281.757 135.352,281.757 64.400,281.300 64.400 C 281.093 64.400,281.000 64.192,281.000 63.724 C 281.000 63.353,280.870 62.941,280.712 62.810 C 280.554 62.679,280.396 62.375,280.362 62.135 C 280.323 61.864,280.168 61.710,279.950 61.728 C 279.690 61.748,279.600 61.605,279.600 61.172 C 279.600 60.837,279.472 60.538,279.300 60.472 C 279.135 60.409,279.000 60.232,279.000 60.079 C 279.000 59.925,278.885 59.800,278.744 59.800 C 278.604 59.800,278.335 59.620,278.146 59.400 C 277.958 59.180,277.623 59.000,277.402 59.000 C 277.178 59.000,277.000 58.867,277.000 58.700 C 277.000 58.515,276.812 58.400,276.511 58.400 C 276.243 58.400,275.901 58.226,275.752 58.013 C 275.576 57.763,275.296 57.647,274.956 57.684 C 274.583 57.725,274.403 57.634,274.334 57.371 C 274.183 56.792,265.100 56.797,264.948 57.377 M93.550 57.779 C 93.412 57.823,93.228 57.980,93.140 58.129 C 93.052 58.278,92.712 58.400,92.384 58.400 C 92.038 58.400,91.739 58.526,91.672 58.700 C 91.609 58.865,91.346 59.000,91.089 59.000 C 90.831 59.000,90.548 59.119,90.460 59.265 C 90.372 59.411,90.142 59.588,89.950 59.659 C 89.758 59.730,89.600 59.925,89.600 60.094 C 89.600 60.262,89.465 60.400,89.300 60.400 C 89.135 60.400,89.000 60.535,89.000 60.700 C 89.000 60.865,88.865 61.000,88.700 61.000 C 88.535 61.000,88.400 61.135,88.400 61.300 C 88.400 61.465,88.217 61.783,87.993 62.007 C 87.769 62.231,87.643 62.507,87.713 62.621 C 87.783 62.734,87.651 62.876,87.420 62.937 C 87.098 63.021,87.000 63.204,87.000 63.723 C 87.000 64.191,86.908 64.400,86.700 64.400 C 86.471 64.400,86.400 64.652,86.400 65.469 C 86.400 66.233,86.300 66.628,86.050 66.855 C 85.546 67.311,85.563 71.932,86.070 72.303 C 86.315 72.482,86.400 72.862,86.400 73.772 C 86.400 74.730,86.466 75.000,86.700 75.000 C 86.899 75.000,87.000 75.199,87.000 75.593 C 87.000 75.984,87.138 76.260,87.406 76.403 C 87.629 76.522,87.760 76.702,87.698 76.803 C 87.636 76.903,87.753 77.153,87.958 77.358 C 88.163 77.563,88.388 77.881,88.459 78.065 C 88.530 78.249,88.680 78.400,88.794 78.400 C 88.907 78.400,89.000 78.535,89.000 78.700 C 89.000 78.865,89.138 79.000,89.306 79.000 C 89.475 79.000,89.664 79.135,89.728 79.300 C 89.791 79.465,90.012 79.600,90.220 79.600 C 90.427 79.600,90.709 79.780,90.846 80.000 C 90.984 80.220,91.212 80.400,91.354 80.400 C 91.496 80.400,91.664 80.535,91.728 80.700 C 91.794 80.872,92.092 81.000,92.428 81.000 C 92.763 81.000,93.062 81.128,93.128 81.300 C 93.217 81.532,93.603 81.600,94.821 81.600 C 96.037 81.600,96.400 81.664,96.400 81.879 C 96.400 82.349,96.885 82.400,101.316 82.400 L 105.600 82.400 105.636 107.950 C 105.656 122.003,105.651 133.800,105.625 134.166 C 105.589 134.691,105.665 134.855,105.989 134.939 C 106.333 135.029,106.400 135.206,106.400 136.023 C 106.400 136.758,106.474 137.000,106.700 137.000 C 106.899 137.000,107.000 137.199,107.000 137.593 C 107.000 137.984,107.138 138.260,107.406 138.403 C 107.629 138.522,107.764 138.696,107.707 138.789 C 107.649 138.882,107.738 139.010,107.903 139.073 C 108.068 139.137,108.310 139.422,108.440 139.707 C 108.586 140.029,108.893 140.269,109.249 140.340 C 109.624 140.415,109.786 140.548,109.717 140.727 C 109.651 140.901,109.756 141.000,110.006 141.000 C 110.223 141.000,110.400 141.135,110.400 141.300 C 110.400 141.508,110.609 141.600,111.078 141.600 C 111.601 141.600,111.749 141.680,111.728 141.950 C 111.707 142.206,111.875 142.317,112.350 142.363 C 112.753 142.401,113.000 142.535,113.000 142.713 C 113.000 143.153,122.159 143.140,122.328 142.700 C 122.391 142.535,122.636 142.399,122.871 142.397 C 123.615 142.393,124.200 142.163,124.200 141.877 C 124.200 141.725,124.380 141.600,124.600 141.600 C 124.822 141.600,125.000 141.467,125.000 141.300 C 125.000 141.115,125.188 141.000,125.490 141.000 C 125.999 141.000,127.000 140.223,127.000 139.827 C 127.000 139.702,127.135 139.600,127.300 139.600 C 127.465 139.600,127.600 139.510,127.600 139.400 C 127.600 139.290,127.780 139.020,128.000 138.800 C 128.220 138.580,128.400 138.220,128.400 138.000 C 128.400 137.778,128.533 137.600,128.700 137.600 C 128.908 137.600,129.000 137.391,129.000 136.921 C 129.000 136.503,129.115 136.199,129.300 136.128 C 129.565 136.026,129.600 132.850,129.600 109.206 L 129.600 82.400 133.984 82.400 C 138.514 82.400,139.000 82.350,139.000 81.879 C 139.000 81.664,139.366 81.600,140.600 81.600 C 141.889 81.600,142.200 81.542,142.200 81.300 C 142.200 81.090,142.411 81.000,142.900 81.000 C 143.389 81.000,143.600 80.910,143.600 80.700 C 143.600 80.535,143.735 80.400,143.900 80.400 C 144.065 80.400,144.380 80.220,144.600 80.000 C 144.820 79.780,145.135 79.600,145.300 79.600 C 145.465 79.600,145.600 79.465,145.600 79.300 C 145.600 79.135,145.700 79.000,145.822 79.000 C 146.118 79.000,146.992 78.160,146.997 77.871 C 146.998 77.746,147.135 77.591,147.300 77.528 C 147.465 77.464,147.600 77.195,147.600 76.930 C 147.600 76.615,147.739 76.410,148.000 76.342 C 148.291 76.266,148.400 76.069,148.400 75.619 C 148.400 75.202,148.498 75.000,148.700 75.000 C 148.927 75.000,149.000 74.755,149.000 73.994 C 149.000 73.284,149.088 72.954,149.300 72.872 C 149.549 72.777,149.600 72.230,149.600 69.672 C 149.600 67.115,149.549 66.568,149.300 66.472 C 149.090 66.392,149.000 66.064,149.000 65.379 C 149.000 64.642,148.926 64.400,148.700 64.400 C 148.498 64.400,148.400 64.198,148.400 63.781 C 148.400 63.331,148.291 63.134,148.000 63.058 C 147.717 62.984,147.600 62.785,147.600 62.377 C 147.600 61.997,147.497 61.800,147.300 61.800 C 147.133 61.800,147.000 61.622,147.000 61.400 C 147.000 61.178,146.867 61.000,146.700 61.000 C 146.535 61.000,146.400 60.865,146.400 60.700 C 146.400 60.533,146.222 60.400,146.000 60.400 C 145.780 60.400,145.598 60.288,145.597 60.150 C 145.591 59.720,144.668 59.000,144.122 59.000 C 143.791 59.000,143.600 58.890,143.600 58.700 C 143.600 58.490,143.389 58.400,142.900 58.400 C 142.411 58.400,142.200 58.310,142.200 58.100 C 142.200 57.935,142.088 57.797,141.950 57.793 C 139.810 57.736,93.729 57.723,93.550 57.779 M313.645 58.050 C 313.584 58.281,313.358 58.400,312.977 58.400 C 312.597 58.400,312.400 58.503,312.400 58.700 C 312.400 58.908,312.191 59.000,311.723 59.000 C 311.204 59.000,311.021 59.098,310.937 59.420 C 310.876 59.651,310.731 59.781,310.613 59.708 C 310.489 59.631,310.400 59.747,310.400 59.988 C 310.400 60.215,310.265 60.411,310.100 60.425 C 309.553 60.471,309.503 60.497,309.000 61.000 C 308.497 61.503,308.471 61.553,308.425 62.100 C 308.411 62.265,308.223 62.400,308.006 62.400 C 307.738 62.400,307.649 62.496,307.728 62.700 C 307.808 62.908,307.714 63.000,307.421 63.000 C 307.073 63.000,307.000 63.121,307.000 63.700 C 307.000 64.189,306.910 64.400,306.700 64.400 C 306.514 64.400,306.400 64.588,306.400 64.893 C 306.400 65.179,306.234 65.475,306.004 65.598 C 305.716 65.752,305.628 65.970,305.678 66.405 C 305.733 66.877,305.671 67.000,305.374 67.000 C 305.059 67.000,305.000 67.157,305.000 68.000 C 305.000 68.756,304.927 69.000,304.700 69.000 C 304.465 69.000,304.400 69.275,304.400 70.277 C 304.400 71.375,304.345 71.568,304.010 71.655 C 303.682 71.741,303.628 71.907,303.674 72.691 C 303.717 73.425,303.651 73.665,303.365 73.819 C 303.074 73.974,303.000 74.257,303.000 75.207 C 303.000 76.134,302.933 76.400,302.700 76.400 C 302.475 76.400,302.400 76.640,302.400 77.356 C 302.400 78.055,302.296 78.400,302.010 78.645 C 301.709 78.902,301.633 79.189,301.675 79.901 C 301.717 80.625,301.651 80.866,301.365 81.019 C 301.074 81.174,301.000 81.457,301.000 82.407 C 301.000 83.334,300.933 83.600,300.700 83.600 C 300.470 83.600,300.400 83.856,300.400 84.700 C 300.400 85.544,300.330 85.800,300.100 85.800 C 299.779 85.800,299.772 85.825,299.693 87.200 C 299.621 88.441,299.635 88.400,299.300 88.400 C 299.074 88.400,299.000 88.642,299.000 89.379 C 299.000 90.064,298.910 90.392,298.700 90.472 C 298.479 90.557,298.400 90.906,298.400 91.794 C 298.400 92.707,298.331 93.000,298.113 93.000 C 297.749 93.000,297.608 93.495,297.698 94.458 C 297.752 95.039,297.678 95.273,297.384 95.456 C 297.092 95.639,297.000 95.926,297.000 96.654 C 297.000 97.322,296.909 97.648,296.700 97.728 C 296.477 97.813,296.400 98.167,296.400 99.098 C 296.400 100.191,296.348 100.367,295.994 100.459 C 295.644 100.551,295.601 100.691,295.675 101.483 C 295.736 102.144,295.688 102.400,295.502 102.400 C 295.144 102.400,295.000 102.863,295.000 104.016 C 295.000 104.757,294.926 105.000,294.700 105.000 C 294.473 105.000,294.400 105.244,294.400 106.000 C 294.400 106.736,294.294 107.106,293.996 107.404 C 293.679 107.721,293.611 107.998,293.676 108.697 C 293.745 109.437,293.695 109.606,293.379 109.707 C 293.059 109.808,293.000 110.026,293.000 111.113 C 293.000 112.124,292.936 112.400,292.700 112.400 C 292.473 112.400,292.400 112.644,292.400 113.400 C 292.400 114.118,292.322 114.400,292.123 114.400 C 291.774 114.400,291.640 114.905,291.702 115.995 C 291.741 116.687,291.678 116.869,291.375 116.949 C 291.068 117.029,291.000 117.238,291.000 118.102 C 291.000 118.855,290.914 119.190,290.700 119.272 C 290.486 119.355,290.400 119.690,290.400 120.446 C 290.400 121.278,290.317 121.556,290.011 121.747 C 289.697 121.943,289.633 122.175,289.681 122.945 C 289.751 124.067,289.659 124.400,289.279 124.400 C 289.078 124.400,289.000 124.679,289.000 125.400 C 289.000 126.156,288.927 126.400,288.700 126.400 C 288.464 126.400,288.400 126.677,288.400 127.690 C 288.400 128.682,288.324 129.023,288.069 129.165 C 287.551 129.455,287.527 133.951,288.041 134.272 C 288.305 134.437,288.400 134.749,288.400 135.448 C 288.400 136.161,288.475 136.400,288.700 136.400 C 288.897 136.400,289.000 136.597,289.000 136.977 C 289.000 137.394,289.116 137.584,289.420 137.663 C 289.651 137.724,289.783 137.866,289.713 137.979 C 289.643 138.093,289.769 138.369,289.993 138.593 C 290.217 138.817,290.400 139.135,290.400 139.300 C 290.400 139.465,290.490 139.600,290.600 139.600 C 290.710 139.600,290.980 139.780,291.200 140.000 C 291.420 140.220,291.780 140.400,292.000 140.400 C 292.222 140.400,292.400 140.533,292.400 140.700 C 292.400 140.865,292.535 141.000,292.700 141.000 C 292.865 141.000,293.000 141.135,293.000 141.300 C 293.000 141.510,293.211 141.600,293.700 141.600 C 294.267 141.600,294.400 141.676,294.400 142.000 C 294.400 142.317,294.535 142.401,295.050 142.406 C 295.407 142.410,295.875 142.545,296.088 142.706 C 296.672 143.148,305.000 143.142,305.000 142.700 C 305.000 142.501,305.199 142.400,305.593 142.400 C 305.981 142.400,306.260 142.262,306.400 142.000 C 306.525 141.766,306.819 141.600,307.107 141.600 C 307.412 141.600,307.600 141.486,307.600 141.300 C 307.600 141.133,307.778 141.000,308.000 141.000 C 308.222 141.000,308.400 140.867,308.400 140.700 C 308.400 140.535,308.535 140.400,308.700 140.400 C 308.867 140.400,309.000 140.222,309.000 140.000 C 309.000 139.778,309.133 139.600,309.300 139.600 C 309.465 139.600,309.600 139.475,309.600 139.323 C 309.600 139.171,309.780 139.000,310.000 138.942 C 310.272 138.871,310.400 138.669,310.400 138.312 C 310.400 138.024,310.535 137.736,310.700 137.672 C 310.871 137.607,311.000 137.308,311.000 136.979 C 311.000 136.598,311.102 136.400,311.300 136.400 C 311.526 136.400,311.600 136.158,311.600 135.423 C 311.600 134.615,311.669 134.429,312.000 134.342 C 312.333 134.255,312.400 134.069,312.400 133.240 C 312.400 132.538,312.489 132.209,312.700 132.128 C 312.921 132.043,313.000 131.694,313.000 130.806 C 313.000 129.867,313.066 129.600,313.300 129.600 C 313.525 129.600,313.600 129.360,313.600 128.644 C 313.600 127.936,313.704 127.600,314.000 127.346 C 314.299 127.090,314.400 126.756,314.400 126.023 C 314.400 125.336,314.490 125.008,314.700 124.928 C 314.910 124.847,315.000 124.519,315.000 123.831 C 315.000 123.202,315.108 122.759,315.300 122.600 C 315.488 122.444,315.600 122.004,315.600 121.424 C 315.600 120.713,315.693 120.438,316.000 120.246 C 316.328 120.042,316.400 119.780,316.400 118.798 C 316.400 117.866,316.467 117.600,316.700 117.600 C 316.927 117.600,317.000 117.356,317.000 116.600 C 317.000 115.844,317.073 115.600,317.300 115.600 C 317.535 115.600,317.600 115.325,317.600 114.323 C 317.600 113.215,317.653 113.033,318.000 112.942 C 318.325 112.857,318.400 112.669,318.400 111.943 C 318.400 111.392,318.515 110.953,318.700 110.800 C 318.897 110.636,319.000 110.190,319.000 109.497 C 319.000 108.744,319.086 108.410,319.300 108.328 C 319.506 108.249,319.600 107.927,319.600 107.306 C 319.600 106.667,319.718 106.282,320.000 106.000 C 320.293 105.707,320.400 105.333,320.400 104.600 C 320.400 103.844,320.473 103.600,320.700 103.600 C 320.927 103.600,321.000 103.354,321.000 102.586 C 321.000 101.951,321.112 101.459,321.300 101.271 C 321.486 101.086,321.600 100.595,321.600 99.986 C 321.600 99.277,321.678 99.000,321.879 99.000 C 322.254 99.000,322.400 98.555,322.400 97.405 C 322.400 96.734,322.491 96.408,322.700 96.328 C 322.912 96.246,323.000 95.916,323.000 95.206 C 323.000 94.445,323.073 94.200,323.300 94.200 C 323.535 94.200,323.600 93.925,323.600 92.923 C 323.600 91.815,323.653 91.633,324.000 91.542 C 324.325 91.457,324.400 91.269,324.400 90.540 C 324.400 89.927,324.495 89.606,324.700 89.528 C 324.921 89.443,325.000 89.094,325.000 88.206 C 325.000 87.267,325.066 87.000,325.300 87.000 C 325.526 87.000,325.600 86.757,325.600 86.010 C 325.600 85.296,325.692 84.968,325.932 84.834 C 326.158 84.708,326.293 84.292,326.356 83.524 L 326.450 82.400 328.131 82.400 L 329.813 82.400 329.792 107.950 C 329.774 131.020,329.802 133.506,330.086 133.565 C 330.335 133.616,330.400 133.916,330.400 135.015 C 330.400 136.113,330.462 136.400,330.700 136.400 C 330.898 136.400,331.000 136.598,331.000 136.979 C 331.000 137.308,331.129 137.607,331.300 137.672 C 331.465 137.736,331.600 138.024,331.600 138.312 C 331.600 138.669,331.728 138.871,332.000 138.942 C 332.220 139.000,332.400 139.171,332.400 139.323 C 332.400 139.475,332.535 139.600,332.700 139.600 C 332.867 139.600,333.000 139.778,333.000 140.000 C 333.000 140.220,333.125 140.400,333.279 140.400 C 333.432 140.400,333.609 140.535,333.672 140.700 C 333.736 140.865,333.916 141.000,334.072 141.000 C 334.229 141.000,334.409 141.135,334.472 141.300 C 334.536 141.465,334.794 141.600,335.046 141.600 C 335.298 141.600,335.616 141.780,335.754 142.000 C 335.898 142.231,336.220 142.400,336.516 142.400 C 336.798 142.400,337.164 142.535,337.329 142.700 C 337.776 143.148,346.756 143.148,346.928 142.700 C 346.994 142.526,347.294 142.400,347.640 142.400 C 348.069 142.400,348.267 142.287,348.342 142.000 C 348.416 141.717,348.615 141.600,349.023 141.600 C 349.403 141.600,349.600 141.497,349.600 141.300 C 349.600 141.133,349.778 141.000,350.000 141.000 C 350.222 141.000,350.400 140.867,350.400 140.700 C 350.400 140.535,350.535 140.400,350.700 140.400 C 350.867 140.400,351.000 140.222,351.000 140.000 C 351.000 139.778,351.133 139.600,351.300 139.600 C 351.465 139.600,351.600 139.465,351.600 139.300 C 351.600 139.133,351.778 139.000,352.000 139.000 C 352.220 139.000,352.400 138.875,352.400 138.721 C 352.400 138.568,352.535 138.391,352.700 138.328 C 352.875 138.260,353.000 137.961,353.000 137.606 C 353.000 137.201,353.099 137.000,353.300 137.000 C 353.527 137.000,353.600 136.756,353.600 136.000 C 353.600 135.282,353.678 135.000,353.877 135.000 C 354.380 135.000,354.395 134.276,354.397 108.250 L 354.400 82.400 357.400 82.400 L 360.400 82.400 360.400 109.000 C 360.400 132.511,360.435 135.600,360.700 135.600 C 360.922 135.600,361.000 135.833,361.000 136.493 C 361.000 137.185,361.091 137.435,361.406 137.603 C 361.629 137.722,361.761 137.901,361.700 138.000 C 361.639 138.099,361.771 138.278,361.994 138.397 C 362.233 138.525,362.400 138.816,362.400 139.107 C 362.400 139.412,362.514 139.600,362.700 139.600 C 362.865 139.600,363.000 139.729,363.000 139.887 C 363.000 140.044,363.172 140.228,363.382 140.294 C 363.591 140.361,363.814 140.547,363.875 140.708 C 363.937 140.868,364.215 141.000,364.494 141.000 C 364.810 141.000,365.000 141.112,365.000 141.300 C 365.000 141.465,365.135 141.600,365.300 141.600 C 365.465 141.600,365.780 141.780,366.000 142.000 C 366.220 142.220,366.660 142.400,366.979 142.400 C 367.308 142.400,367.607 142.529,367.672 142.700 C 367.837 143.128,377.000 143.154,377.000 142.726 C 377.000 142.556,377.316 142.410,377.834 142.341 C 378.293 142.279,378.747 142.087,378.844 141.914 C 378.941 141.742,379.150 141.600,379.310 141.600 C 379.469 141.600,379.600 141.465,379.600 141.300 C 379.600 141.107,379.796 140.999,380.150 140.997 C 380.696 140.993,381.600 140.260,381.600 139.822 C 381.600 139.700,381.737 139.600,381.905 139.600 C 382.073 139.600,382.292 139.384,382.393 139.119 C 382.493 138.855,382.671 138.580,382.788 138.508 C 382.904 138.435,383.000 138.202,383.000 137.988 C 383.000 137.775,383.135 137.600,383.300 137.600 C 383.527 137.600,383.600 137.356,383.600 136.600 C 383.600 135.733,383.653 135.600,384.000 135.600 C 384.398 135.600,384.400 135.468,384.397 100.450 C 384.395 65.131,384.384 64.400,383.877 64.400 C 383.695 64.400,383.600 64.166,383.600 63.721 C 383.600 63.303,383.485 62.999,383.300 62.928 C 383.135 62.864,383.000 62.582,383.000 62.300 C 383.000 62.018,382.865 61.736,382.700 61.672 C 382.535 61.609,382.400 61.448,382.400 61.315 C 382.400 61.181,382.197 60.882,381.950 60.650 C 381.703 60.418,381.382 60.085,381.238 59.909 C 381.094 59.734,380.885 59.647,380.775 59.716 C 380.664 59.784,380.524 59.651,380.463 59.420 C 380.403 59.189,380.193 59.000,379.998 59.000 C 379.803 59.000,379.591 58.865,379.528 58.700 C 379.449 58.495,379.129 58.400,378.521 58.400 C 377.873 58.400,377.612 58.315,377.565 58.087 C 377.459 57.575,313.779 57.538,313.645 58.050 " stroke="none" fill="#3434fc" fill-rule="evenodd"></path><path id="path1" d="M107.565 57.750 C 113.211 57.779,122.391 57.779,127.965 57.750 C 133.539 57.720,128.920 57.696,117.700 57.696 C 106.480 57.696,101.919 57.720,107.565 57.750 M331.366 57.750 C 339.102 57.779,351.702 57.779,359.366 57.750 C 367.030 57.721,360.700 57.697,345.300 57.697 C 329.900 57.697,323.630 57.721,331.366 57.750 M85.669 69.700 C 85.669 70.580,85.704 70.915,85.747 70.445 C 85.789 69.974,85.788 69.254,85.745 68.845 C 85.702 68.435,85.668 68.820,85.669 69.700 M329.697 107.100 C 329.697 120.740,329.721 126.291,329.750 119.434 C 329.779 112.578,329.779 101.418,329.750 94.634 C 329.721 87.851,329.697 93.460,329.697 107.100 M287.662 131.900 C 287.663 132.560,287.700 132.806,287.745 132.446 C 287.789 132.087,287.789 131.547,287.743 131.246 C 287.697 130.946,287.661 131.240,287.662 131.900 " stroke="none" fill="#3834fc" fill-rule="evenodd"></path><path id="path2" d="M107.565 57.750 C 113.211 57.779,122.391 57.779,127.965 57.750 C 133.539 57.720,128.920 57.696,117.700 57.696 C 106.480 57.696,101.919 57.720,107.565 57.750 M331.366 57.750 C 339.102 57.779,351.702 57.779,359.366 57.750 C 367.030 57.721,360.700 57.697,345.300 57.697 C 329.900 57.697,323.630 57.721,331.366 57.750 M85.669 69.700 C 85.669 70.580,85.704 70.915,85.747 70.445 C 85.789 69.974,85.788 69.254,85.745 68.845 C 85.702 68.435,85.668 68.820,85.669 69.700 M329.697 107.100 C 329.697 120.740,329.721 126.291,329.750 119.434 C 329.779 112.578,329.779 101.418,329.750 94.634 C 329.721 87.851,329.697 93.460,329.697 107.100 M287.662 131.900 C 287.663 132.560,287.700 132.806,287.745 132.446 C 287.789 132.087,287.789 131.547,287.743 131.246 C 287.697 130.946,287.661 131.240,287.662 131.900 " stroke="none" fill="#3834fc" fill-rule="evenodd"></path><path id="path3" d="M107.565 57.750 C 113.211 57.779,122.391 57.779,127.965 57.750 C 133.539 57.720,128.920 57.696,117.700 57.696 C 106.480 57.696,101.919 57.720,107.565 57.750 M331.366 57.750 C 339.102 57.779,351.702 57.779,359.366 57.750 C 367.030 57.721,360.700 57.697,345.300 57.697 C 329.900 57.697,323.630 57.721,331.366 57.750 M85.669 69.700 C 85.669 70.580,85.704 70.915,85.747 70.445 C 85.789 69.974,85.788 69.254,85.745 68.845 C 85.702 68.435,85.668 68.820,85.669 69.700 M329.697 107.100 C 329.697 120.740,329.721 126.291,329.750 119.434 C 329.779 112.578,329.779 101.418,329.750 94.634 C 329.721 87.851,329.697 93.460,329.697 107.100 M287.662 131.900 C 287.663 132.560,287.700 132.806,287.745 132.446 C 287.789 132.087,287.789 131.547,287.743 131.246 C 287.697 130.946,287.661 131.240,287.662 131.900 " stroke="none" fill="#3834fc" fill-rule="evenodd"></path><path id="path4" d="M107.565 57.750 C 113.211 57.779,122.391 57.779,127.965 57.750 C 133.539 57.720,128.920 57.696,117.700 57.696 C 106.480 57.696,101.919 57.720,107.565 57.750 M331.366 57.750 C 339.102 57.779,351.702 57.779,359.366 57.750 C 367.030 57.721,360.700 57.697,345.300 57.697 C 329.900 57.697,323.630 57.721,331.366 57.750 M85.669 69.700 C 85.669 70.580,85.704 70.915,85.747 70.445 C 85.789 69.974,85.788 69.254,85.745 68.845 C 85.702 68.435,85.668 68.820,85.669 69.700 M329.697 107.100 C 329.697 120.740,329.721 126.291,329.750 119.434 C 329.779 112.578,329.779 101.418,329.750 94.634 C 329.721 87.851,329.697 93.460,329.697 107.100 M287.662 131.900 C 287.663 132.560,287.700 132.806,287.745 132.446 C 287.789 132.087,287.789 131.547,287.743 131.246 C 287.697 130.946,287.661 131.240,287.662 131.900 " stroke="none" fill="#3834fc" fill-rule="evenodd"></path></g></svg>